<svg id="Layer_1" data-name="Layer 1" xmlns="http://www.w3.org/2000/svg" viewBox="0 0 57 57"><defs><style>.cls-1{fill:#fff;}.cls-2{fill:#274247;}.cls-3{fill:none;}</style></defs><title>Artboard 6</title><path class="cls-1" d="M7,51.64c0,1,1.48,2.15,4,3V50.68a10.36,10.36,0,0,1-4-2.15Z"/><path class="cls-1" d="M12,51v3.93a33.2,33.2,0,0,0,8.5,1c8,0,13.5-2.26,13.5-4.28V48.53c-2.09,2-7.27,3.47-13.5,3.47A33.26,33.26,0,0,1,12,51Z"/><path class="cls-1" d="M7.38,45.53a1.65,1.65,0,0,0-.38,1C7,48.63,12.54,51,20.5,51S34,48.63,34,46.5a1.65,1.65,0,0,0-.38-1c-2.48,1.91-7.92,2.93-13.12,2.93S9.86,47.44,7.38,45.53Z"/><path class="cls-1" d="M29.61,23.91a1.71,1.71,0,0,0,0,1.34,8.21,8.21,0,0,0,2,2.91l2.08-4a9.9,9.9,0,0,1-2.45-3.38Z"/><path class="cls-1" d="M39.67,33.81C44.42,36.2,50,37.47,52.35,36.68a1.49,1.49,0,0,0,.93-.69c.55-1.11,1.15-2.27,1.63-3.19a6.85,6.85,0,0,1-1.83.22c-3.1,0-7.51-1.41-11.44-3.4a34.11,34.11,0,0,1-7.19-4.77l-2.09,4A33,33,0,0,0,39.67,33.81Z"/><path class="cls-2" d="M56.83,29.4c-.87-2.67-5.08-6.29-10.47-9-6.18-3.13-13.58-4.84-15.12-1.84,0,0,0,.07,0,.1l-2.48,4.82a2.69,2.69,0,0,0-.06,2.1c.89,2.73,5.14,6.4,10.56,9.14a28,28,0,0,0,11.36,3.2,7,7,0,0,0,2.09-.27,2.49,2.49,0,0,0,1.51-1.19c1-2.13,2.29-4.45,2.51-4.87l.07-.11A2.64,2.64,0,0,0,56.83,29.4Zm-4.48,7.28c-2.36.79-7.93-.48-12.68-2.87a33,33,0,0,1-7.31-4.92l2.09-4a34.11,34.11,0,0,0,7.19,4.77c3.93,2,8.34,3.4,11.44,3.4a6.85,6.85,0,0,0,1.83-.22c-.48.92-1.08,2.08-1.63,3.19A1.49,1.49,0,0,1,52.35,36.68ZM29.61,23.91l1.63-3.15a9.9,9.9,0,0,0,2.45,3.38l-2.08,4a8.21,8.21,0,0,1-2-2.91A1.71,1.71,0,0,1,29.61,23.91Z"/><path class="cls-1" d="M2.33,16.9c2.48.56,7.59-1.2,12.43-4.29,6.66-4.25,10.12-9.11,9-10.82a1.7,1.7,0,0,0-1.13-.69,4.71,4.71,0,0,0-1-.1c-2.71,0-7.15,1.69-11.39,4.39-.42.26-.82.53-1.21.8l-.85.61L7.9,7c-.56.42-1.08.84-1.58,1.25l-.45.38-.52.47L5,9.44c-.22.2-.43.41-.63.61l-.18.18-.6.64L3.45,11c-.18.2-.34.4-.5.59s-.09.11-.13.16a15.41,15.41,0,0,0-1,1.37l0,0c-.8,1.33-1,2.42-.64,3.06h0A1.7,1.7,0,0,0,2.33,16.9Z"/><path class="cls-1" d="M3.34,18a6,6,0,0,1-1.07-.1l1.62,2.52a1.18,1.18,0,0,0,.26.29,1.32,1.32,0,0,0,.2.12l.16.1a1.69,1.69,0,0,0,.36.12l.09,0a3.89,3.89,0,0,0,.53.09h0a9.61,9.61,0,0,0,3-.3h0L6.43,17.53A13,13,0,0,1,3.34,18Z"/><path class="cls-1" d="M24.88,3.47c-.75,3-5,7-9.58,10a34.57,34.57,0,0,1-7.87,3.78L9.55,20.6h0c.52-.16,1.07-.35,1.64-.56l.22-.09c.55-.21,1.12-.45,1.7-.72l.32-.15c.59-.28,1.19-.58,1.8-.91l.28-.16c.65-.36,1.3-.74,2-1.16a31.18,31.18,0,0,0,7.45-6.32C26.49,8.61,27.1,7,26.56,6.1Z"/><path class="cls-2" d="M27.4,5.56,24.65,1.25h0A2.65,2.65,0,0,0,22.89.13C20.13-.5,14.83,1.28,9.7,4.54,3.82,8.3-1.46,13.85.35,16.75h0L3.05,21a3.32,3.32,0,0,0,3,1.27c3.13,0,7.87-1.95,12-4.54a32.32,32.32,0,0,0,7.69-6.53C27.61,8.82,28.2,6.83,27.4,5.56ZM1.83,13.15l0,0a15.41,15.41,0,0,1,1-1.37c0-.05.09-.1.13-.16s.32-.39.5-.59l.12-.13.6-.64.18-.18c.2-.2.41-.41.63-.61l.37-.34.52-.47.45-.38c.5-.41,1-.83,1.58-1.25l.28-.2L9,6.19c.39-.27.79-.54,1.21-.8C14.48,2.69,18.92,1,21.63,1a4.71,4.71,0,0,1,1,.1,1.7,1.7,0,0,1,1.13.69c1.08,1.71-2.38,6.57-9,10.82C9.92,15.7,4.81,17.46,2.33,16.9a1.7,1.7,0,0,1-1.13-.69h0A1.28,1.28,0,0,1,1,15.65,4.47,4.47,0,0,1,1.83,13.15Zm6.71,7.72a9.61,9.61,0,0,1-3,.3h0A3.89,3.89,0,0,1,5,21.08l-.09,0a1.69,1.69,0,0,1-.36-.12l-.16-.1a1.32,1.32,0,0,1-.2-.12,1.18,1.18,0,0,1-.26-.29L2.27,17.9a6,6,0,0,0,1.07.1,13,13,0,0,0,3.09-.47l2.11,3.34Zm16.4-10.34a31.18,31.18,0,0,1-7.45,6.32c-.67.42-1.32.8-2,1.16l-.28.16c-.61.33-1.21.63-1.8.91l-.32.15c-.58.27-1.15.51-1.7.72L11.2,20c-.57.21-1.12.4-1.64.56h0L7.43,17.24a34.57,34.57,0,0,0,7.87-3.78c4.61-3,8.83-7,9.58-10L26.56,6.1C27.1,7,26.49,8.61,24.94,10.53Z"/><path class="cls-3" d="M20.5,48.46c-5.2,0-10.64-1-13.12-2.93a1.65,1.65,0,0,0-.38,1C7,48.63,12.54,51,20.5,51S34,48.63,34,46.5a1.65,1.65,0,0,0-.38-1C31.14,47.44,25.7,48.46,20.5,48.46Z"/><path class="cls-3" d="M12,51v3.93a33.2,33.2,0,0,0,8.5,1c8,0,13.5-2.26,13.5-4.28V48.53c-2.09,2-7.27,3.47-13.5,3.47A33.26,33.26,0,0,1,12,51Z"/><path class="cls-3" d="M7,51.64c0,1,1.48,2.15,4,3V50.68a10.36,10.36,0,0,1-4-2.15Z"/><path class="cls-2" d="M35,37.5c0-3.08-6.37-5.5-14.5-5.5S6,34.42,6,37.5v5.69a2.59,2.59,0,0,0,.66,1.64A2.6,2.6,0,0,0,6,46.5v5.14c0,3.43,7.47,5.28,14.5,5.28S35,55.07,35,51.64V46.5a2.6,2.6,0,0,0-.66-1.67A2.59,2.59,0,0,0,35,43.19Zm-28,2a10.36,10.36,0,0,0,4,2.15v4.47c-2.52-.82-4-1.92-4-3Zm4,15.08c-2.52-.82-4-1.92-4-3V48.53a10.36,10.36,0,0,0,4,2.15Zm23-3c0,2-5.54,4.28-13.5,4.28a33.2,33.2,0,0,1-8.5-1V51a33.26,33.26,0,0,0,8.5,1c6.23,0,11.41-1.42,13.5-3.47ZM20.5,51C12.54,51,7,48.63,7,46.5a1.65,1.65,0,0,1,.38-1c2.48,1.91,7.92,2.93,13.12,2.93s10.64-1,13.12-2.93a1.65,1.65,0,0,1,.38,1C34,48.63,28.46,51,20.5,51ZM34,43.19c0,2-5.54,4.27-13.5,4.27a33.2,33.2,0,0,1-8.5-1V42a33.26,33.26,0,0,0,8.5,1c6.23,0,11.41-1.42,13.5-3.47Z"/><path class="cls-1" d="M11,46.15V41.68a10.36,10.36,0,0,1-4-2.15v3.66C7,44.23,8.48,45.33,11,46.15Z"/><path class="cls-1" d="M12,42v4.47a33.2,33.2,0,0,0,8.5,1c8,0,13.5-2.25,13.5-4.27V39.53c-2.09,2-7.27,3.47-13.5,3.47A33.26,33.26,0,0,1,12,42Z"/></svg>