<svg xmlns="http://www.w3.org/2000/svg" viewBox="0 0 57 57"><path d="M28.43,1.58,56,19.61V56.07H1V19.61l27.43-18m0-1.19L0,19.07v38H57v-38L28.43.39Z" fill="#274247"/><path d="M50.76,36.22c-.72-2.66-4.37-3.87-4.65-3.91l-7.88,6.52-12.86-13-7.18,5.88-6.42-5.88c-.28.05-6.77.68-6.77,4.11V43.85l4.89,6.22H28v7H48.56l4.88-6.22Z" fill="#274247"/><circle cx="38.5" cy="27.57" r="5" fill="#fff"/><path d="M38.5,33.07a5.5,5.5,0,1,1,5.5-5.5A5.51,5.51,0,0,1,38.5,33.07Zm0-10a4.5,4.5,0,1,0,4.5,4.5A4.51,4.51,0,0,0,38.5,23.07Z" fill="#274247"/><circle cx="18.5" cy="20.57" r="5" fill="#fff"/><path d="M18.5,26.07a5.5,5.5,0,1,1,5.5-5.5A5.51,5.51,0,0,1,18.5,26.07Zm0-10a4.5,4.5,0,1,0,4.5,4.5A4.51,4.51,0,0,0,18.5,16.07Z" fill="#274247"/><circle cx="25.5" cy="41.57" r="4.5" fill="#fff"/><path d="M36,57.07V49c0-3-5.41-3.93-5.64-4L25.5,49.25l-4.6-4.16S15,46,15,49v8.1Z" fill="#fff"/><path d="M30.64,46.07c1.5.34,4.36,1.31,4.36,2.9v7.1H16V49c0-1.45,2.85-2.45,4.59-2.81L24.83,50l.66.6.67-.59,4.48-3.93M30.36,45,25.5,49.25l-4.6-4.16S15,46,15,49v8.1H36V49c0-3-5.41-3.93-5.64-4Z" fill="#274247"/><path d="M19.5,57.07a.5.5,0,0,1-.5-.5v-2a.5.5,0,1,1,1,0v2A.5.5,0,0,1,19.5,57.07Z" fill="#274247"/><path d="M31.5,57.07a.5.5,0,0,1-.5-.5v-2a.5.5,0,1,1,1,0v2A.5.5,0,0,1,31.5,57.07Z" fill="#274247"/></svg>