<svg id="Layer_1" data-name="Layer 1" xmlns="http://www.w3.org/2000/svg" viewBox="0 0 57 57"><defs><style>.cls-1,.cls-2{fill:none;}.cls-1,.cls-2,.cls-3{stroke:#274247;}.cls-1{stroke-linecap:round;}.cls-1,.cls-2,.cls-3,.cls-5{stroke-miterlimit:10;}.cls-3,.cls-6{fill:#fff;}.cls-4,.cls-5{fill:#274247;}.cls-5{stroke:#fff;}</style></defs><title>Artboard 14</title><line class="cls-1" x1="0.5" y1="41.5" x2="56.5" y2="41.5"/><line class="cls-1" x1="0.5" y1="35.5" x2="0.5" y2="57.5"/><line class="cls-2" x1="5.5" y1="42" x2="5.5" y2="57"/><line class="cls-2" x1="10.5" y1="42" x2="10.5" y2="57"/><line class="cls-2" x1="46.5" y1="42" x2="46.5" y2="57"/><line class="cls-2" x1="51.5" y1="42" x2="51.5" y2="57"/><line class="cls-1" x1="56.5" y1="35.5" x2="56.5" y2="57.5"/><circle class="cls-3" cx="28.5" cy="9.5" r="9"/><path class="cls-4" d="M38,21l-9,9L19,21c-.41.07-10,1.61-10,6.52V49l7,4v4H41V53l7-4V27.52C48,22.61,38.41,21.07,38,21Z"/><path class="cls-5" d="M41.56,38.08a2.1,2.1,0,0,0-1.45-2.14L29,30.5h-.94L16.78,35.94a2.08,2.08,0,0,0-1.45,2.14,2.19,2.19,0,0,0,2.94,1.72l4.23-1.86V41.5h12V38l4.11,1.8a2.2,2.2,0,0,0,3-1.72Z"/><rect class="cls-6" x="22" y="41" width="13" height="7"/><circle class="cls-5" cx="28.5" cy="27.5" r="6"/><path class="cls-5" d="M25.06,53a2.13,2.13,0,0,1-1.81-1.44l-2-6a2.12,2.12,0,1,1,4-1.35l2,6.05a2.12,2.12,0,0,1-1.34,2.68A2,2,0,0,1,25.06,53Z"/><path class="cls-5" d="M32.05,53a2.12,2.12,0,0,0,1.81-1.44l2-6a2.12,2.12,0,0,0-4-1.35l-2,6.05a2.11,2.11,0,0,0,1.33,2.68A2,2,0,0,0,32.05,53Z"/></svg>