<svg xmlns="http://www.w3.org/2000/svg" viewBox="0 0 57 57"><line x1="36.4" y1="8.72" x2="36.6" y2="8.52" fill="none" stroke="#274247" stroke-linecap="round" stroke-miterlimit="10"/><line x1="33.78" y1="8.72" x2="34.47" y2="8.04" fill="none" stroke="#274247" stroke-linecap="round" stroke-miterlimit="10"/><line x1="31.16" y1="8.72" x2="32" y2="7.88" fill="none" stroke="#274247" stroke-linecap="round" stroke-miterlimit="10"/><line x1="36.4" y1="12.09" x2="37.24" y2="11.25" fill="none" stroke="#274247" stroke-linecap="round" stroke-miterlimit="10"/><line x1="33.78" y1="12.09" x2="34.62" y2="11.25" fill="none" stroke="#274247" stroke-linecap="round" stroke-miterlimit="10"/><line x1="31.16" y1="12.09" x2="32" y2="11.25" fill="none" stroke="#274247" stroke-linecap="round" stroke-miterlimit="10"/><line x1="39.01" y1="12.09" x2="39.85" y2="11.25" fill="none" stroke="#274247" stroke-linecap="round" stroke-miterlimit="10"/><line x1="41.63" y1="12.09" x2="42.47" y2="11.25" fill="none" stroke="#274247" stroke-linecap="round" stroke-miterlimit="10"/><line x1="36.4" y1="15.45" x2="37.24" y2="14.61" fill="none" stroke="#274247" stroke-linecap="round" stroke-miterlimit="10"/><line x1="33.78" y1="15.45" x2="34.62" y2="14.61" fill="none" stroke="#274247" stroke-linecap="round" stroke-miterlimit="10"/><line x1="31.16" y1="15.45" x2="32" y2="14.61" fill="none" stroke="#274247" stroke-linecap="round" stroke-miterlimit="10"/><line x1="39.01" y1="15.45" x2="39.85" y2="14.61" fill="none" stroke="#274247" stroke-linecap="round" stroke-miterlimit="10"/><line x1="41.63" y1="15.45" x2="42.47" y2="14.61" fill="none" stroke="#274247" stroke-linecap="round" stroke-miterlimit="10"/><line x1="44.24" y1="15.45" x2="45.09" y2="14.61" fill="none" stroke="#274247" stroke-linecap="round" stroke-miterlimit="10"/><line x1="46.86" y1="15.45" x2="47.2" y2="15.11" fill="none" stroke="#274247" stroke-linecap="round" stroke-miterlimit="10"/><line x1="36.4" y1="18.82" x2="37.24" y2="17.97" fill="none" stroke="#274247" stroke-linecap="round" stroke-miterlimit="10"/><line x1="33.78" y1="18.82" x2="34.62" y2="17.97" fill="none" stroke="#274247" stroke-linecap="round" stroke-miterlimit="10"/><line x1="31.16" y1="18.82" x2="32" y2="17.97" fill="none" stroke="#274247" stroke-linecap="round" stroke-miterlimit="10"/><line x1="39.01" y1="18.82" x2="39.85" y2="17.97" fill="none" stroke="#274247" stroke-linecap="round" stroke-miterlimit="10"/><line x1="41.63" y1="18.82" x2="42.47" y2="17.97" fill="none" stroke="#274247" stroke-linecap="round" stroke-miterlimit="10"/><line x1="44.24" y1="18.82" x2="45.09" y2="17.97" fill="none" stroke="#274247" stroke-linecap="round" stroke-miterlimit="10"/><line x1="46.86" y1="18.82" x2="47.7" y2="17.97" fill="none" stroke="#274247" stroke-linecap="round" stroke-miterlimit="10"/><line x1="49.48" y1="18.82" x2="49.69" y2="18.61" fill="none" stroke="#274247" stroke-linecap="round" stroke-miterlimit="10"/><line x1="36.4" y1="22.18" x2="37.24" y2="21.34" fill="none" stroke="#274247" stroke-linecap="round" stroke-miterlimit="10"/><line x1="33.78" y1="22.18" x2="34.62" y2="21.34" fill="none" stroke="#274247" stroke-linecap="round" stroke-miterlimit="10"/><line x1="31.16" y1="22.18" x2="32" y2="21.34" fill="none" stroke="#274247" stroke-linecap="round" stroke-miterlimit="10"/><line x1="39.01" y1="22.18" x2="39.85" y2="21.34" fill="none" stroke="#274247" stroke-linecap="round" stroke-miterlimit="10"/><line x1="41.63" y1="22.18" x2="42.47" y2="21.34" fill="none" stroke="#274247" stroke-linecap="round" stroke-miterlimit="10"/><line x1="44.24" y1="22.18" x2="45.09" y2="21.34" fill="none" stroke="#274247" stroke-linecap="round" stroke-miterlimit="10"/><line x1="46.86" y1="22.18" x2="47.7" y2="21.34" fill="none" stroke="#274247" stroke-linecap="round" stroke-miterlimit="10"/><line x1="49.48" y1="22.18" x2="50.32" y2="21.34" fill="none" stroke="#274247" stroke-linecap="round" stroke-miterlimit="10"/><line x1="36.4" y1="25.54" x2="37.24" y2="24.7" fill="none" stroke="#274247" stroke-linecap="round" stroke-miterlimit="10"/><line x1="33.78" y1="25.54" x2="34.62" y2="24.7" fill="none" stroke="#274247" stroke-linecap="round" stroke-miterlimit="10"/><line x1="31.16" y1="25.54" x2="32" y2="24.7" fill="none" stroke="#274247" stroke-linecap="round" stroke-miterlimit="10"/><line x1="39.01" y1="25.54" x2="39.85" y2="24.7" fill="none" stroke="#274247" stroke-linecap="round" stroke-miterlimit="10"/><line x1="41.63" y1="25.54" x2="42.47" y2="24.7" fill="none" stroke="#274247" stroke-linecap="round" stroke-miterlimit="10"/><line x1="44.24" y1="25.54" x2="45.09" y2="24.7" fill="none" stroke="#274247" stroke-linecap="round" stroke-miterlimit="10"/><line x1="46.86" y1="25.54" x2="47.7" y2="24.7" fill="none" stroke="#274247" stroke-linecap="round" stroke-miterlimit="10"/><line x1="49.48" y1="25.54" x2="50.32" y2="24.7" fill="none" stroke="#274247" stroke-linecap="round" stroke-miterlimit="10"/><line x1="52.09" y1="25.54" x2="52.27" y2="25.36" fill="none" stroke="#274247" stroke-linecap="round" stroke-miterlimit="10"/><line x1="36.4" y1="28.91" x2="37.24" y2="28.07" fill="none" stroke="#274247" stroke-linecap="round" stroke-miterlimit="10"/><line x1="33.78" y1="28.91" x2="34.62" y2="28.07" fill="none" stroke="#274247" stroke-linecap="round" stroke-miterlimit="10"/><line x1="31.16" y1="28.91" x2="32" y2="28.07" fill="none" stroke="#274247" stroke-linecap="round" stroke-miterlimit="10"/><line x1="39.01" y1="28.91" x2="39.85" y2="28.07" fill="none" stroke="#274247" stroke-linecap="round" stroke-miterlimit="10"/><line x1="41.63" y1="28.91" x2="42.47" y2="28.07" fill="none" stroke="#274247" stroke-linecap="round" stroke-miterlimit="10"/><line x1="44.24" y1="28.91" x2="45.09" y2="28.07" fill="none" stroke="#274247" stroke-linecap="round" stroke-miterlimit="10"/><line x1="46.86" y1="28.91" x2="47.7" y2="28.07" fill="none" stroke="#274247" stroke-linecap="round" stroke-miterlimit="10"/><line x1="49.48" y1="28.91" x2="50.32" y2="28.07" fill="none" stroke="#274247" stroke-linecap="round" stroke-miterlimit="10"/><line x1="52.09" y1="28.91" x2="52.71" y2="28.29" fill="none" stroke="#274247" stroke-linecap="round" stroke-miterlimit="10"/><path d="M5.52,14.22l21,11.9V2A24.13,24.13,0,0,0,5.52,14.22Z" fill="#1a9d49" stroke="#274247" stroke-miterlimit="10"/><path d="M29.5,7.38V31.5H53.62A24.12,24.12,0,0,0,29.5,7.38Z" fill="none" stroke="#274247" stroke-miterlimit="10"/><path d="M29.38,31.5l-21-11.9a24.12,24.12,0,0,0,.15,24.06l21-12.16Z" fill="#274247" stroke="#274247" stroke-miterlimit="10"/><path d="M29.59,31.5,8.5,43.5a24.54,24.54,0,0,0,21,12.5A24.37,24.37,0,0,0,53.69,31.5Z" fill="#fff" stroke="#274247" stroke-miterlimit="10"/></svg>